PathFileType	4	(X/Y/Z)	Run_500 04
DataRate	CameraRate	NumFrames	NumMarkers	Units	OrigDataRate	OrigDataStartFrame	OrigNumFrames
100	100	5	41	mm	100	412	125
Frame#	Time	RASI			RPSI			RTH1			RTH2			RTH3			LTH1			LTH2			LTH3			RTB1			RTB2			RTB3			LTB1			LTB2			LTB3			RCAL			RTOE			RMT5			LCAL			LTOE			LACR			RACR			CLAV			C7			RUA1			RUA2			RUA3			RLEL			RMEL			LUA1			LUA2			LUA3			LLEL			LMEL			RFAsuperior			RFAradius			RFAulna			LFAsuperior			LFAradius			LFAulna			LPSI			LASI		
		X1	Y1	Z1	X2	Y2	Z2	X3	Y3	Z3	X4	Y4	Z4	X5	Y5	Z5	X6	Y6	Z6	X7	Y7	Z7	X8	Y8	Z8	X9	Y9	Z9	X10	Y10	Z10	X11	Y11	Z11	X12	Y12	Z12	X13	Y13	Z13	X14	Y14	Z14	X15	Y15	Z15	X16	Y16	Z16	X17	Y17	Z17	X18	Y18	Z18	X19	Y19	Z19	X20	Y20	Z20	X21	Y21	Z21	X22	Y22	Z22	X23	Y23	Z23	X24	Y24	Z24	X25	Y25	Z25	X26	Y26	Z26	X27	Y27	Z27	X28	Y28	Z28	X29	Y29	Z29	X30	Y30	Z30	X31	Y31	Z31	X32	Y32	Z32	X33	Y33	Z33	X34	Y34	Z34	X35	Y35	Z35	X36	Y36	Z36	X37	Y37	Z37	X38	Y38	Z38	X39	Y39	Z39	X40	Y40	Z40	X41	Y41	Z41	

412	  4.120000	1150.172584	965.050947	-280.623913	987.130640	1022.798367	-381.962297	1117.085531	806.838116	-227.660508	1172.265021	720.789258	-238.973242	1145.992988	572.303905	-271.847324	1092.239150	794.543650	-591.575891	1181.152760	675.882124	-578.040606	1129.653621	553.666434	-578.280599	1166.521230	319.760429	-361.179723	1083.308792	238.940218	-324.733155	1069.921143	174.620594	-395.374804	995.881129	425.273386	-485.984045	940.962654	464.038070	-531.749487	862.638387	465.168198	-475.555801	912.793540	112.500720	-401.986774	1146.241735	 70.616932	-406.459315	1137.844405	 49.042487	-326.281571	753.160211	605.468241	-467.492244	697.851294	374.837966	-446.812742	1207.875318	1479.263845	-551.774865	1208.663836	1430.922927	-209.771596	1250.869975	1385.016080	-355.063598	1155.858426	1497.497298	-378.969544	1141.114392	1316.500525	-122.561519	1068.786747	1318.042114	-122.764776	1074.689347	1254.391546	-89.177318	1036.834813	1194.055028	-51.227645	989.956920	1172.602509	-128.646665	1115.278310	1399.368888	-632.207004	1024.217972	1378.506396	-604.756360	1028.635180	1309.716776	-661.490134	985.547759	1257.855735	-688.211051	955.294726	1241.146223	-604.351861	1122.900154	1165.871706	-67.607036	1257.974497	1109.645662	-137.179260	1234.624756	1052.668557	-98.545620	1041.609449	1182.182615	-689.083352	1156.312889	1065.154648	-623.626316	1110.434855	1022.887416	-663.450316	994.804909	1016.974943	-473.742136	1163.324120	947.782556	-539.135735	
413	  4.130000	1149.894561	964.913303	-280.534977	987.463093	1024.905837	-379.473746	1110.732712	801.852614	-227.807168	1160.882133	711.208224	-239.670991	1122.601359	566.525041	-273.145530	1093.044802	798.378248	-592.994751	1195.995375	688.456607	-577.944953	1155.294907	563.296676	-579.585602	1127.807342	312.226975	-362.831158	1041.623002	236.037850	-325.734883	1024.034558	173.856128	-395.725173	1029.863775	424.972000	-486.851334	972.553274	460.315570	-532.568143	893.935090	454.928293	-476.351254	864.013358	116.808864	-401.221992	1096.136677	 69.698864	-407.417269	1087.315797	 49.123681	-326.854522	771.484335	585.856338	-465.197307	739.342234	350.218866	-454.180533	1200.329370	1484.327094	-551.957138	1211.824827	1435.469999	-211.427122	1250.227200	1388.571598	-357.459848	1153.397241	1499.531848	-378.676781	1149.418906	1318.971252	-123.627922	1077.103762	1316.091962	-123.235466	1086.896318	1253.504175	-89.764270	1052.073966	1191.796406	-51.771446	1007.189451	1168.276100	-129.684411	1103.588016	1409.421736	-630.718086	1014.132079	1390.672797	-600.044480	1014.500881	1323.506902	-659.552669	968.879449	1273.476375	-685.617952	940.615468	1257.149002	-600.699664	1139.562589	1169.842067	-70.516146	1277.291031	1126.093175	-145.857363	1260.299320	1066.925247	-107.617572	1021.857598	1196.015581	-689.017190	1138.005833	1077.376290	-627.405138	1089.033934	1035.622304	-663.296661	992.870142	1019.731494	-471.262170	1161.504898	951.291564	-537.653662	
414	  4.140000	1150.311615	964.805808	-280.715741	988.423936	1027.985568	-377.627782	1103.567089	798.791072	-228.529864	1147.204064	703.935286	-240.142033	1097.327265	563.484777	-273.860997	1095.181287	804.079134	-594.802524	1209.173066	704.095110	-577.653767	1178.971034	576.652178	-579.989729	1087.276967	307.962215	-364.109924	998.444392	235.248063	-325.910164	977.764060	174.822305	-395.317591	1063.322435	426.430896	-488.003810	1002.961878	457.939235	-532.963217	925.177356	444.346985	-476.792896	815.940852	123.061797	-399.412648	1046.084364	 68.903577	-407.940306	1036.803007	 49.230622	-327.240613	789.374090	562.556948	-461.945515	783.273895	324.500006	-461.251841	1192.966897	1490.765170	-551.802303	1214.606933	1441.687588	-212.824544	1249.648634	1393.817424	-360.178163	1151.543905	1503.798174	-377.932056	1157.508232	1323.102393	-125.267177	1085.302834	1317.329371	-123.476541	1098.292209	1255.329913	-90.814695	1066.239429	1192.077864	-52.861610	1023.720594	1167.062070	-131.784190	1092.342659	1421.683489	-628.725360	1004.765512	1404.549496	-596.446348	1001.210616	1338.648359	-657.662399	953.085682	1290.660819	-682.862234	925.302023	1275.152906	-597.138423	1154.475381	1177.082083	-74.287291	1293.315319	1146.876690	-156.220832	1283.112167	1085.779541	-119.040070	1003.345542	1212.650400	-687.740161	1120.796927	1093.477478	-629.567861	1069.732530	1051.647370	-661.293389	992.470126	1023.543996	-469.480471	1161.054843	955.762981	-536.677949	
415	  4.150000	1151.708184	965.371042	-280.819653	990.193918	1032.223612	-376.174247	1096.543515	798.540429	-230.136943	1131.745582	699.865196	-240.862265	1070.517749	563.490158	-274.208813	1098.919165	812.117983	-596.736522	1220.282068	721.558057	-577.479234	1199.986147	592.637084	-579.768618	1046.303864	307.319139	-363.865390	954.788508	237.380085	-325.228321	932.000146	177.750788	-394.188360	1096.042048	429.349838	-489.769506	1032.291465	456.536087	-533.042754	956.615642	433.350009	-477.304016	769.375787	132.348554	-396.849169	996.457781	 67.951036	-408.127545	986.381160	 49.273999	-327.460568	807.665914	535.737805	-458.670277	830.239409	298.771988	-467.151534	1186.351096	1498.163980	-551.412188	1217.151595	1449.431658	-214.643965	1249.232422	1400.660773	-363.091208	1150.252705	1509.928467	-377.146214	1165.477946	1328.878158	-127.335548	1093.454225	1321.192837	-123.866695	1109.216321	1259.627495	-91.950401	1080.330178	1194.315475	-54.111150	1038.689770	1168.337138	-133.572967	1082.171838	1435.551820	-626.293458	996.440643	1419.769827	-593.517509	988.828579	1354.759095	-655.430758	938.411897	1308.922641	-679.397516	910.390152	1294.345501	-593.356378	1168.713729	1186.795002	-79.030538	1306.091017	1170.257631	-167.613357	1302.788445	1107.780628	-131.759536	986.700296	1231.433199	-685.189639	1104.844033	1111.934941	-630.311602	1052.435113	1069.879288	-658.198070	993.844774	1028.548978	-468.418530	1162.332995	961.421706	-536.440012	
416	  4.160000	1154.157318	967.168017	-281.078554	992.737438	1037.418562	-374.835485	1090.544953	800.600629	-232.038915	1116.511968	698.937621	-242.140617	1043.562985	566.569569	-274.068576	1103.739096	822.201373	-598.686319	1229.463514	739.551164	-577.458673	1218.255398	609.941017	-579.064438	1006.030085	310.236821	-361.896921	911.924219	243.060153	-323.753253	887.562240	183.135132	-392.485122	1127.645170	433.226809	-491.543156	1060.571540	455.362937	-532.855924	988.310960	421.865819	-477.840653	725.120994	145.231109	-394.071672	947.247048	 66.856755	-408.224644	935.876777	 49.381896	-327.629365	827.386888	505.831971	-455.811369	880.307186	274.027020	-471.454089	1180.639350	1506.262904	-551.001891	1219.578708	1458.489350	-217.302420	1248.983598	1408.871725	-366.135131	1148.983274	1517.063278	-376.724722	1173.352163	1336.195863	-129.590348	1101.639951	1326.836080	-124.540574	1120.095315	1265.843041	-92.983388	1094.651807	1198.360290	-55.298615	1051.862714	1171.858931	-134.410169	1073.482455	1450.320044	-623.663646	989.442735	1435.958081	-590.593321	977.408019	1371.650253	-652.416795	924.904537	1328.023957	-674.741203	896.973732	1314.342920	-588.595028	1182.359237	1198.443814	-84.342409	1315.850446	1194.880130	-179.492615	1319.307374	1131.737630	-145.047372	971.902398	1251.539724	-681.551045	1090.406815	1131.546286	-630.057882	1037.050060	1089.365629	-654.614331	996.475115	1034.628955	-467.604651	1164.922120	968.195574	-536.545856	
